<?xml version="1.0" encoding="UTF-8"?>
<svg width="596px" height="150px" viewBox="0 0 596 150" version="1.1" xmlns="http://www.w3.org/2000/svg" xmlns:xlink="http://www.w3.org/1999/xlink">
    <!-- Generator: Sketch 46.2 (44496) - http://www.bohemiancoding.com/sketch -->
    <title>Group</title>
    <desc>Created with Sketch.</desc>
    <defs>
        <polygon id="path-1" points="437 0 0 2.48689958e-14 0 49 437 49"></polygon>
    </defs>
    <g id="Page-1" stroke="none" stroke-width="1" fill="none" fill-rule="evenodd">
        <g id="Group">
            <g id="Group-14">
                <path d="M151.907964,43.6312327 C153.215442,60.7017284 140.438595,75.6003401 123.368326,76.9078351 C106.299005,78.216279 91.4005902,65.439263 90.0921637,48.3687673 C88.7837371,31.2982716 101.560584,16.3996599 118.630854,15.0921649 C135.701123,13.783721 150.599538,26.560737 151.907964,43.6312327" id="Fill-1" fill="#58585B"></path>
                <g id="Group-5" transform="translate(0.000000, 22.000000)" fill="#58585B">
                    <path d="M61.347116,28.7878521 C62.6427495,45.749612 49.9816463,60.5523795 33.0660138,61.8524888 C16.1513216,63.1525981 1.38786977,50.4569693 0.0912960878,33.4952095 C-1.2052776,16.5334497 11.4558256,1.72973936 28.3714581,0.429630035 C45.2870906,-0.869536495 60.0505424,11.8260923 61.347116,28.7878521" id="Fill-3"></path>
                </g>
                <path d="M109.918689,28.3204297 C111.224406,45.3762049 96.6494254,60.4022755 77.3638279,61.8821302 C58.0791772,63.3619848 41.3870228,50.7353454 40.0813061,33.6795703 C38.7755893,16.6237951 53.3515167,1.59867249 72.6361674,0.117869818 C91.921765,-1.36198483 108.612972,11.2646546 109.918689,28.3204297" id="Fill-6" fill="#58585B"></path>
                <path d="M128.987397,138.927305 C129.166467,141.287955 127.416293,143.348765 125.0799,143.529621 L41.6511688,149.987142 C39.3138336,150.16895 37.2733776,148.401318 37.0952501,146.040668 L32.0124884,79.0733961 C31.8343608,76.7127457 33.5826499,74.651936 35.9209276,74.4710798 L119.348716,68.0126069 C121.686051,67.8327025 123.726507,69.5993828 123.905577,71.9600331 L128.987397,138.927305 Z" id="Fill-8" fill="#58585B"></path>
                <path d="M107.987309,84.7306248 C108.167623,87.1005737 106.405295,89.1695008 104.052677,89.3510695 L56.9414835,92.9872208 C54.5879168,93.1687895 52.533291,91.3941947 52.3529774,89.0242459 L50.012697,58.2684257 C49.8323834,55.8984769 51.5937624,53.8305054 53.9473291,53.6489367 L101.058523,50.0127853 C103.412089,49.8312167 105.465766,51.6048558 105.647029,53.9748047 L107.987309,84.7306248 Z" id="Fill-10" fill="#58585B"></path>
                <path d="M116.979226,108.464621 C117.274408,112.319353 114.389147,115.684044 110.535379,115.979226 C106.680647,116.274408 103.315956,113.389147 103.020774,109.534415 C102.725592,105.680647 105.610853,102.315956 109.465585,102.020774 C113.320317,101.725592 116.684044,104.610853 116.979226,108.464621" id="Fill-12" fill="#FEFEFE"></path>
            </g>
            <text id="Kimi" font-family="Gotham-Bold, Gotham" font-size="75.7239" font-weight="bold" fill="#58585B">
                <tspan x="166" y="93">Kimi</tspan>
            </text>
            <g id="Group-16" transform="translate(170.000000, 100.000000)">
                <mask id="mask-2" fill="white">
                    <use xlink:href="#path-1"></use>
                </mask>
                <g id="Clip-15"></g>
                <text id="Best-Homemade-Food" mask="url(#mask-2)" font-family="Gotham-Light, Gotham" font-size="38.402" font-weight="normal" letter-spacing="0.239999995" fill="#58585B">
                    <tspan x="0" y="38">Best Homemade Foo</tspan>
                    <tspan x="404.152036" y="38" letter-spacing="-0.065">d</tspan>
                </text>
            </g>
        </g>
    </g>
</svg>