<?xml version="1.0" encoding="utf-8"?>
<!-- Generator: Adobe Illustrator 16.0.0, SVG Export Plug-In . SVG Version: 6.00 Build 0)  -->
<!DOCTYPE svg PUBLIC "-//W3C//DTD SVG 1.1//EN" "http://www.w3.org/Graphics/SVG/1.1/DTD/svg11.dtd">
<svg version="1.1" id="Layer_1" xmlns="http://www.w3.org/2000/svg" xmlns:xlink="http://www.w3.org/1999/xlink" x="0px" y="0px"
	 width="612px" height="792px" viewBox="0 0 612 792" enable-background="new 0 0 612 792" xml:space="preserve">
<g>
	<g>
		<g>
			<circle fill="#333333" cx="139.769" cy="259.473" r="26.704"/>
			<circle fill="#333333" cx="61.772" cy="265.451" r="26.703"/>
			
				<ellipse transform="matrix(0.9971 -0.0764 0.0764 0.9971 -18.551 8.3288)" fill="#333333" cx="99.551" cy="246.557" rx="30.231" ry="26.704"/>
			<path fill="#333333" d="M146.977,339.288c0.155,2.028-1.362,3.797-3.389,3.952l-72.353,5.545
				c-2.028,0.156-3.796-1.362-3.952-3.389l-4.407-57.503c-0.155-2.027,1.362-3.796,3.389-3.952l72.353-5.545
				c2.027-0.155,3.796,1.362,3.952,3.389L146.977,339.288z"/>
			<path fill="#333333" d="M128.388,292.102c0.155,2.027-1.362,3.796-3.389,3.952l-40.575,3.11c-2.027,0.155-3.796-1.362-3.952-3.39
				l-2.016-26.305c-0.156-2.028,1.361-3.796,3.389-3.952l40.575-3.11c2.027-0.155,3.796,1.362,3.952,3.389L128.388,292.102z"/>
		</g>
		<circle fill="#FFFFFF" cx="130.028" cy="313.512" r="5.931"/>
	</g>
	<text transform="matrix(1 0 0 1 176.542 289.833)" fill="#333333" font-family="'Gotham-Bold'" font-size="75.7239">Kimi</text>
	
		<text transform="matrix(1 0 0 1 179.5415 333.5981)" fill="#333333" font-family="'Gotham-Light'" font-size="38.402" letter-spacing="-2">Best Homemade Food</text>
</g>
</svg>
